HIERARCHY
ROOT Hips
{
	OFFSET -0.001795 -0.223333 0.028219
	CHANNELS 6 Xposition Yposition Zposition Zrotation Yrotation Xrotation 
	JOINT LeftUpLeg
	{
		OFFSET 0.069520 -0.091406 -0.006815
		CHANNELS 3 Zrotation Yrotation Xrotation
		JOINT LeftLeg
		{
			OFFSET 0.034277 -0.375199 -0.004496
			CHANNELS 3 Zrotation Yrotation Xrotation
			JOINT LeftFoot
			{
				OFFSET -0.013596 -0.397961 -0.043693
				CHANNELS 3 Zrotation Yrotation Xrotation
				JOINT LeftToe
				{
					OFFSET 0.026358 -0.055791 0.119288
					CHANNELS 3 Zrotation Yrotation Xrotation
					End Site
					{
						OFFSET 0.000000 0.000000 0.000000
					}
				}
			}
		}
	}
	JOINT RightUpLeg
	{
		OFFSET -0.067670 -0.090522 -0.004320
		CHANNELS 3 Zrotation Yrotation Xrotation
		JOINT RightLeg
		{
			OFFSET -0.038290 -0.382569 -0.008850
			CHANNELS 3 Zrotation Yrotation Xrotation
			JOINT RightFoot
			{
				OFFSET 0.015774 -0.398415 -0.042312
				CHANNELS 3 Zrotation Yrotation Xrotation
				JOINT RightToe
				{
					OFFSET -0.025372 -0.048144 0.123348
					CHANNELS 3 Zrotation Yrotation Xrotation
					End Site
					{
						OFFSET 0.000000 0.000000 0.000000
					}
				}
			}
		}
	}
	JOINT Spine
	{
		OFFSET -0.002533 0.108963 -0.026696
		CHANNELS 3 Zrotation Yrotation Xrotation
		JOINT Spine1
		{
			OFFSET 0.005487 0.135180 0.001092
			CHANNELS 3 Zrotation Yrotation Xrotation
			JOINT Spine2
			{
				OFFSET 0.001457 0.052922 0.025425
				CHANNELS 3 Zrotation Yrotation Xrotation
				JOINT Neck
				{
					OFFSET -0.002778 0.213870 -0.042857
					CHANNELS 3 Zrotation Yrotation Xrotation
					JOINT Head
					{
						OFFSET 0.005152 0.064970 0.051349
						CHANNELS 3 Zrotation Yrotation Xrotation
						End Site
						{
							OFFSET 0.000000 0.000000 0.000000
						}
					}
				}
				JOINT LeftShoulder
				{
					OFFSET 0.078845 0.121749 -0.034090
					CHANNELS 3 Zrotation Yrotation Xrotation
					JOINT LeftArm
					{
						OFFSET 0.090977 0.030469 -0.008868
						CHANNELS 3 Zrotation Yrotation Xrotation
						JOINT LeftForeArm
						{
							OFFSET 0.259612 -0.012772 -0.027456
							CHANNELS 3 Zrotation Yrotation Xrotation
							JOINT LeftHand
							{
								OFFSET 0.249234 0.008986 -0.001171
								CHANNELS 3 Zrotation Yrotation Xrotation
								End Site
								{
									OFFSET 0.000000 0.000000 0.000000
								}
							}
						}
					}
				}
				JOINT RightShoulder
				{
					OFFSET -0.081759 0.118833 -0.038615
					CHANNELS 3 Zrotation Yrotation Xrotation
					JOINT RightArm
					{
						OFFSET -0.096012 0.032551 -0.009143
						CHANNELS 3 Zrotation Yrotation Xrotation
						JOINT RightForeArm
						{
							OFFSET -0.253742 -0.013329 -0.021401
							CHANNELS 3 Zrotation Yrotation Xrotation
							JOINT RightHand
							{
								OFFSET -0.255298 0.007772 -0.005559
								CHANNELS 3 Zrotation Yrotation Xrotation
								End Site
								{
									OFFSET 0.000000 0.000000 0.000000
								}
							}
						}
					}
				}
			}
		}
	}
}
MOTION
Frames: 16
Frame Time: 0.050000
0.344256 0.937678 2.067455 -0.593342 1.482687 -6.990901 -2.234413 -1.533694 -13.552943 -4.744891 0.579030 18.452027 7.739105 17.185070 14.376059 0.000000 0.000000 0.000000 -2.891059 1.112913 -14.871289 -0.720294 3.039258 64.690955 -0.674860 -5.533328 9.867095 0.000000 0.000000 0.000000 4.708732 -1.263698 15.644195 -5.919655 1.993247 -28.414073 0.058569 8.403313 29.473121 8.174332 -1.066432 -30.660702 0.000000 0.000000 0.000000 -17.684294 -10.009048 2.071117 -37.176454 1.622685 -6.225490 1.983964 -22.326057 0.245085 0.000000 0.000000 0.000000 27.376827 -3.250060 -0.170381 41.442248 14.997490 -2.792742 -10.985856 21.435942 -0.423575 0.000000 0.000000 0.000000 
0.360626 0.932284 2.134082 -0.600289 3.350004 -8.704046 -4.488953 -1.255044 -9.336325 -3.313130 0.005431 22.124508 8.108181 17.456209 9.685090 0.000000 0.000000 0.000000 -2.064705 1.630603 -21.116770 -0.498727 1.896879 60.288865 -2.045450 -7.357100 7.024546 0.000000 0.000000 0.000000 4.894649 -1.569451 18.403209 -5.926650 1.973874 -29.992796 -0.333155 5.495274 31.346212 8.227171 -1.433985 -31.251233 0.000000 0.000000 0.000000 -22.244049 -11.609734 3.177547 -40.056027 -1.695746 -5.952626 0.380906 -18.801579 0.582526 0.000000 0.000000 0.000000 31.068491 -3.401490 -0.848079 47.824057 11.012145 -4.397662 -7.476100 15.728307 0.085856 0.000000 0.000000 0.000000 
0.374976 0.933124 2.200102 -1.214272 4.962703 -9.029674 -4.963805 -0.556753 -4.048603 -2.512153 -0.323687 21.381350 7.662950 16.401434 6.384264 0.000000 0.000000 0.000000 -1.140576 1.976723 -24.444787 0.446784 0.567124 48.339388 -1.970098 -7.318925 8.219663 0.000000 0.000000 0.000000 6.127027 -1.747472 17.903906 -7.015423 2.275699 -28.730736 -0.276546 2.824621 30.533167 8.276191 -1.700999 -31.471803 0.000000 0.000000 0.000000 -23.657974 -11.234738 3.362263 -40.701736 -5.402783 -4.941190 0.820317 -18.494572 0.550083 0.000000 0.000000 0.000000 29.144017 -5.385367 -2.814925 51.193229 5.487671 -6.313930 -7.366017 10.951021 0.106700 0.000000 0.000000 0.000000 
0.388192 0.941061 2.266927 -1.892756 5.740444 -9.509909 -5.284955 0.174871 1.485831 -1.276178 -0.676872 20.250627 7.212029 15.795485 7.447870 0.000000 0.000000 0.000000 0.649318 2.288537 -23.901154 1.587742 -0.041567 30.791882 -0.647890 -5.429745 11.899460 0.000000 0.000000 0.000000 7.081197 -1.758010 16.672332 -6.043512 2.038436 -29.471851 -1.745432 2.019151 31.397691 8.299466 -2.205016 -28.567710 0.000000 0.000000 0.000000 -19.824222 -8.093448 1.898201 -37.109443 -7.056369 -4.263426 5.247934 -19.695444 -0.183901 0.000000 0.000000 0.000000 23.932951 -9.093018 -4.867694 48.628965 1.588021 -7.454176 -9.443898 10.407492 0.030865 0.000000 0.000000 0.000000 
0.401322 0.948339 2.335280 -1.690098 5.557762 -7.980102 -5.909170 0.632512 4.713101 -0.944525 -0.661049 18.562519 6.921961 16.034087 12.437873 0.000000 0.000000 0.000000 3.129664 2.680384 -22.557320 1.713803 -0.010269 15.795405 1.399757 -3.074886 17.018016 0.000000 0.000000 0.000000 7.207907 -1.317528 12.774785 -5.116270 1.800207 -30.411204 -3.204081 2.387352 31.777668 9.231826 -3.165937 -25.794436 0.000000 0.000000 0.000000 -11.473537 -6.227388 1.489803 -29.890333 -8.333384 -3.344697 10.449981 -20.146656 -1.230203 0.000000 0.000000 0.000000 19.314528 -12.285224 -6.340993 36.081495 -0.305473 -6.191484 -13.723464 11.332898 -0.290484 0.000000 0.000000 0.000000 
0.416018 0.951799 2.405549 -1.812667 6.608162 -6.832097 -5.056552 0.919498 7.284250 -1.435194 -0.613292 19.290947 4.095561 12.749028 16.685747 0.000000 0.000000 0.000000 5.687673 2.775465 -19.707840 -0.141110 0.313091 9.572520 2.951137 -1.123820 19.982315 0.000000 0.000000 0.000000 8.253854 -0.956032 8.736023 -5.763978 1.945794 -29.538458 -4.010657 1.399839 29.478796 8.074426 -3.191888 -20.965393 0.000000 0.000000 0.000000 -3.017745 -3.676415 1.026760 -20.506636 -10.285373 -2.118495 18.038317 -17.566206 -2.425991 0.000000 0.000000 0.000000 11.576095 -13.907124 -6.478430 20.490440 0.114755 -3.326544 -14.955273 8.436083 -0.273445 0.000000 0.000000 0.000000 
0.431915 0.950984 2.474988 -1.715374 7.633588 -6.554155 -3.360747 0.917995 8.459301 -3.445535 -0.371407 24.979964 -0.085904 7.740742 19.523194 0.000000 0.000000 0.000000 6.250806 2.498094 -17.086218 -0.989574 0.523103 11.333655 0.170364 -4.921665 17.676122 0.000000 0.000000 0.000000 8.940903 -0.832237 7.283190 -6.388677 1.831510 -33.423429 -4.708349 1.974555 30.838925 8.329552 -4.126101 -16.112875 0.000000 0.000000 0.000000 7.296576 -0.638431 0.887923 -7.988201 -14.180966 -1.241735 20.655251 -12.670971 -2.336363 0.000000 0.000000 0.000000 1.592079 -16.922693 -6.672585 6.462677 5.679670 -1.152343 -11.588712 3.969819 0.111372 0.000000 0.000000 0.000000 
0.446408 0.951681 2.536737 -2.053566 7.091426 -6.691239 0.956244 0.474132 6.978627 -8.225657 1.132384 33.301851 -4.416198 3.395605 24.579962 0.000000 0.000000 0.000000 7.061647 2.206148 -14.116527 -0.703055 0.510018 13.110258 -1.213787 -6.709025 14.299156 0.000000 0.000000 0.000000 8.946315 -0.894599 7.827942 -5.623704 1.598454 -35.385636 -5.053990 1.754493 29.527843 7.133140 -3.786061 -13.347259 0.000000 0.000000 0.000000 14.819994 2.298070 0.781621 3.193793 -15.239310 -1.051275 19.879784 -4.659409 -1.026232 0.000000 0.000000 0.000000 -7.197163 -14.671379 -4.859227 -1.976233 9.062216 -0.475545 -10.377647 -0.566208 0.355120 0.000000 0.000000 0.000000 
0.458529 0.956010 2.586869 -2.248643 8.150774 -6.857854 4.390137 0.047425 2.851134 -10.901248 2.037165 40.610013 -5.483555 4.236472 31.047434 0.000000 0.000000 0.000000 7.159634 1.749441 -10.938305 -1.175091 0.601759 13.305848 -2.575596 -8.752273 12.325525 0.000000 0.000000 0.000000 8.383939 -1.125796 9.913127 -7.401872 1.498634 -39.600813 -2.804867 1.928065 31.162219 8.486284 -5.082446 -12.235798 0.000000 0.000000 0.000000 20.373183 4.908068 0.839467 11.817709 -19.982987 -2.091503 20.810676 2.978230 -0.003693 0.000000 0.000000 0.000000 -13.451847 -16.299835 -4.931921 -7.508182 11.509005 -0.339865 -9.142102 -2.826095 0.428652 0.000000 0.000000 0.000000 
0.469326 0.962848 2.627745 -1.888934 7.646949 -6.167828 5.549023 -0.105907 -0.299789 -11.322775 2.333850 39.542452 0.939062 9.954971 23.638409 0.000000 0.000000 0.000000 6.606781 1.225612 -7.807875 -0.875667 0.510593 11.860908 -2.622052 -8.799216 11.345671 0.000000 0.000000 0.000000 7.573956 -1.153646 10.640083 -6.999842 1.373626 -40.724580 -1.579566 2.837056 30.623379 8.338006 -5.160644 -10.920446 0.000000 0.000000 0.000000 23.804092 6.313604 1.077371 15.645201 -21.063398 -2.669000 21.044176 8.934016 0.811864 0.000000 0.000000 0.000000 -18.523085 -14.658255 -4.230039 -10.956183 13.109715 -0.343911 -8.980269 -4.451350 0.507316 0.000000 0.000000 0.000000 
0.479569 0.969976 2.661366 -1.030829 6.939350 -5.372873 5.678790 -0.185982 -2.417998 -9.196120 1.534623 33.919049 4.519523 12.151623 10.770094 0.000000 0.000000 0.000000 6.060583 0.818713 -5.413301 -2.136326 0.732221 9.837425 -1.942139 -7.743012 12.158742 0.000000 0.000000 0.000000 6.540100 -1.237000 12.187183 -6.522358 1.177617 -43.431099 -0.845179 5.092662 31.108582 9.716453 -6.234408 -10.412526 0.000000 0.000000 0.000000 25.304213 8.017664 1.347605 17.816415 -23.974714 -3.885454 22.476429 12.770425 1.327251 0.000000 0.000000 0.000000 -19.930721 -14.061385 -4.428906 -13.601459 15.335487 -0.477815 -9.345400 -6.556348 0.667027 0.000000 0.000000 0.000000 
0.489293 0.974213 2.689650 -0.385964 5.617332 -4.506841 4.463952 -0.179467 -2.331249 -5.843276 0.594435 22.527656 4.085501 9.830475 4.487584 0.000000 0.000000 0.000000 4.939627 0.434779 -3.180727 -1.957683 0.595738 7.238351 -1.545941 -7.296108 12.655463 0.000000 0.000000 0.000000 5.869107 -1.123439 11.828284 -6.335901 1.270478 -42.786514 -0.931565 6.386423 30.716818 10.732826 -6.776618 -11.196144 0.000000 0.000000 0.000000 27.361713 8.350701 1.697069 19.386431 -25.164049 -4.544665 23.520227 15.885035 1.831835 0.000000 0.000000 0.000000 -21.396009 -13.252768 -4.265388 -13.887301 18.067458 -0.914897 -10.648499 -7.588209 0.871959 0.000000 0.000000 0.000000 
0.497937 0.975674 2.713730 -0.007576 5.206173 -4.152620 4.020502 -0.165492 -2.047299 -3.914728 0.260146 13.269271 0.312935 4.256421 7.873368 0.000000 0.000000 0.000000 3.944801 0.201087 -1.653170 -1.913011 0.563739 6.675085 -1.270042 -6.734191 12.171064 0.000000 0.000000 0.000000 5.691990 -1.148949 12.261201 -7.147265 1.400256 -42.172717 -0.861520 6.080006 29.942252 11.576749 -7.603188 -11.069123 0.000000 0.000000 0.000000 28.953926 8.318066 1.797042 20.948553 -25.175581 -4.708359 21.981059 15.774819 1.725565 0.000000 0.000000 0.000000 -21.962039 -13.227212 -4.060137 -15.500516 20.380390 -1.398389 -11.641055 -7.640796 0.960977 0.000000 0.000000 0.000000 
0.505213 0.975127 2.734283 -0.151915 4.738144 -3.843160 3.354845 -0.057237 -0.203135 -1.708289 0.034486 5.733373 -3.027330 2.030465 16.094102 0.000000 0.000000 0.000000 3.457216 -0.006918 -0.152662 -2.430948 0.567018 5.018698 0.065461 -4.492087 13.080446 0.000000 0.000000 0.000000 5.571694 -1.036532 11.264377 -6.989943 1.472442 -41.087622 -0.996379 6.291689 30.544269 14.208549 -9.584460 -12.150644 0.000000 0.000000 0.000000 30.979455 6.602843 2.075465 22.519475 -24.093301 -4.553134 19.269675 16.277641 1.512854 0.000000 0.000000 0.000000 -21.712819 -13.181187 -4.093624 -18.244513 21.528908 -1.692983 -11.032181 -7.516648 0.870206 0.000000 0.000000 0.000000 
0.511106 0.973738 2.751583 -0.542766 4.030542 -4.332909 2.836453 0.108025 2.249708 -0.755551 -0.043564 3.922183 -3.484090 1.928951 17.821015 0.000000 0.000000 0.000000 3.377517 -0.117645 0.683758 -2.622893 0.608285 5.183494 0.899822 -3.512299 14.653750 0.000000 0.000000 0.000000 5.433162 -0.993354 11.091592 -6.321216 1.505409 -39.835729 -1.625266 6.121798 30.327846 14.899937 -11.125771 -9.579690 0.000000 0.000000 0.000000 31.684272 5.723363 2.031970 25.075692 -22.722872 -4.313232 16.149626 14.945167 1.105682 0.000000 0.000000 0.000000 -21.772881 -11.711060 -3.724611 -19.849730 22.169451 -1.920028 -11.552620 -7.380408 0.884236 0.000000 0.000000 0.000000 
0.515837 0.972356 2.765187 -0.771932 3.958868 -4.381200 2.464988 0.238608 4.118286 -0.714559 0.009909 2.108520 -2.186925 3.722337 17.516284 0.000000 0.000000 0.000000 2.948986 -0.199660 1.364075 -2.405373 0.586294 5.405878 1.602620 -2.204940 14.572857 0.000000 0.000000 0.000000 5.486697 -0.890602 9.993582 -6.482090 1.637921 -37.755687 -1.940842 5.366436 30.094626 15.570706 -11.816593 -9.627510 0.000000 0.000000 0.000000 31.912158 4.733198 1.931019 26.819552 -21.404921 -3.925896 13.464295 13.327287 0.773279 0.000000 0.000000 0.000000 -21.437559 -11.450057 -3.522486 -22.374994 22.467736 -2.182375 -10.832192 -6.775939 0.745149 0.000000 0.000000 0.000000 
